<svg version="1.2" baseProfile="tiny-ps" xmlns="http://www.w3.org/2000/svg" viewBox="0 0 1666 1666" width="1666" height="1666">
	<title>Facebook-f_Logo-Blue-Logo</title>
	<style>
		tspan { white-space:pre }
		.shp0 { fill: #1877f2 } 
		.shp1 { fill: #ffffff } 
	</style>
	<path id="Layer" class="shp0" d="M1665.19 832.59C1665.19 372.76 1292.42 0 832.59 0C372.76 0 0 372.76 0 832.59C0 1248.16 304.47 1592.61 702.5 1655.07L702.5 1073.27L491.1 1073.27L491.1 832.59L702.5 832.59L702.5 649.16C702.5 440.49 826.8 325.23 1016.98 325.23C1108.08 325.23 1203.36 341.49 1203.36 341.49L1203.36 546.39L1098.37 546.39C994.94 546.39 962.69 610.57 962.69 676.41L962.69 832.59L1193.6 832.59L1156.69 1073.27L962.69 1073.27L962.69 1655.07C1360.72 1592.61 1665.19 1248.16 1665.19 832.59" />
	<path id="Layer" class="shp1" d="M1156.69 1073.27L1193.6 832.59L962.69 832.59L962.69 676.41C962.69 610.57 994.94 546.39 1098.37 546.39L1203.36 546.39L1203.36 341.49C1203.36 341.49 1108.08 325.23 1016.98 325.23C826.8 325.23 702.5 440.49 702.5 649.16L702.5 832.59L491.1 832.59L491.1 1073.27L702.5 1073.27L702.5 1655.07C713.25 1656.76 724.04 1658.23 734.85 1659.5C745.66 1660.76 756.5 1661.82 767.35 1662.66C778.2 1663.51 789.07 1664.14 799.95 1664.56C810.82 1664.98 821.71 1665.19 832.59 1665.19C876.85 1665.19 920.3 1661.72 962.69 1655.07L962.69 1073.27L1156.69 1073.27Z" />
</svg>