<svg width="30" height="28" viewBox="0 0 30 28" fill="none" xmlns="http://www.w3.org/2000/svg">
<path fill-rule="evenodd" clip-rule="evenodd" d="M0 14C0 14.5796 0.485783 15.05 1.08434 15.05H16.9489L14.1137 17.402C14.0055 17.4917 13.9166 17.6012 13.8521 17.7242C13.7875 17.8472 13.7487 17.9813 13.7377 18.1188C13.7267 18.2564 13.7437 18.3947 13.7879 18.5258C13.8321 18.657 13.9025 18.7784 13.9952 18.8832C14.0878 18.988 14.2009 19.0741 14.3279 19.1366C14.4549 19.1991 14.5934 19.2367 14.7354 19.2474C14.8775 19.258 15.0203 19.2415 15.1557 19.1987C15.2912 19.1559 15.4166 19.0877 15.5248 18.998L20.5851 14.798C20.7041 14.6994 20.7997 14.5771 20.8652 14.4393C20.9307 14.3016 20.9647 14.1517 20.9647 14C20.9647 13.8484 20.9307 13.6985 20.8652 13.5607C20.7997 13.423 20.7041 13.3006 20.5851 13.202L15.5248 9.00202C15.3063 8.82083 15.0223 8.73113 14.7354 8.75266C14.4486 8.77418 14.1823 8.90518 13.9952 9.11682C13.8081 9.32847 13.7154 9.60342 13.7377 9.8812C13.7599 10.159 13.8952 10.4168 14.1137 10.598L16.9475 12.95H1.08578C0.798199 12.95 0.522393 13.0606 0.319041 13.2576C0.115688 13.4545 0.00144585 13.7215 0.00144585 14H0Z" fill="#275473"/>
<path d="M11.2051 10.85H11.7516C11.5127 10.1959 11.5036 9.48364 11.7256 8.82396C11.9476 8.16427 12.3884 7.59402 12.9794 7.20175C13.5704 6.80947 14.2786 6.61712 14.9941 6.65456C15.7096 6.692 16.3923 6.95714 16.9362 7.4088L21.9964 11.6088C22.3525 11.9045 22.6384 12.2713 22.8344 12.6841C23.0304 13.0968 23.1318 13.5457 23.1318 14C23.1318 14.4543 23.0304 14.9032 22.8344 15.3159C22.6384 15.7287 22.3525 16.0955 21.9964 16.3912L16.9362 20.5912C16.3923 21.0429 15.7096 21.308 14.9941 21.3454C14.2786 21.3829 13.5704 21.1905 12.9794 20.7983C12.3884 20.406 11.9476 19.8357 11.7256 19.176C11.5036 18.5164 11.5127 17.8041 11.7516 17.15H11.2051V19.6C11.2051 23.5592 11.2051 25.5402 12.4759 26.7694C13.7453 28 15.7911 28 19.8798 28H21.3256C25.4142 28 27.46 28 28.7294 26.7694C30.0003 25.5402 30.0003 23.5592 30.0003 19.6V8.4C30.0003 4.4408 30.0003 2.4598 28.7294 1.2306C27.46 -8.34465e-08 25.4142 0 21.3256 0H19.8798C15.7911 0 13.7453 -8.34465e-08 12.4759 1.2306C11.2051 2.4598 11.2051 4.4408 11.2051 8.4V10.85Z" fill="#275473"/>
</svg>
